<svg width="456" height="544" xmlns="http://www.w3.org/2000/svg" xmlns:xlink="http://www.w3.org/1999/xlink" overflow="hidden"><defs><filter id="fx0" x="-10%" y="-10%" width="120%" height="120%" filterUnits="userSpaceOnUse" primitiveUnits="userSpaceOnUse"><feComponentTransfer color-interpolation-filters="sRGB"><feFuncR type="discrete" tableValues="0 0"/><feFuncG type="discrete" tableValues="0 0"/><feFuncB type="discrete" tableValues="0 0"/><feFuncA type="linear" slope="0.4" intercept="0"/></feComponentTransfer><feGaussianBlur stdDeviation="3.72524 3.72524"/></filter><clipPath id="clip1"><rect x="1976" y="1005" width="456" height="544"/></clipPath><clipPath id="clip2"><rect x="172" y="132" width="92" height="215"/></clipPath><clipPath id="clip3"><rect x="0" y="0" width="460" height="546"/></clipPath></defs><g clip-path="url(#clip1)" transform="translate(-1976 -1005)"><g clip-path="url(#clip2)" filter="url(#fx0)" transform="translate(1974 1004)"><g clip-path="url(#clip3)"><path d="M86.4609 0 67.207 0 67.207-153.91C63.4935-150.197 57.4388-146.18 49.043-141.861 40.6471-137.542 32.9779-134.535 26.0352-132.84L26.0352-153.426C34.9154-155.928 44.4414-160.005 54.6133-165.656 64.7851-171.307 72.8177-176.797 78.7109-182.125L86.4609-182.125Z" transform="matrix(1 0 0 1 161.801 330)"/></g></g><text font-family="Malgun Gothic,Malgun Gothic_MSFontService,sans-serif" font-weight="400" font-size="248" transform="matrix(1 0 0 1 2131.82 1330)">1</text></g></svg>